<svg xmlns="http://www.w3.org/2000/svg" version="1" width="500" height="500" viewBox="0 0 500 500"><path fill="#fff" d="m273 24.5c-131.1 136.2-74.8 149.1-113.1 213.4-4.1-11.9-7-28.7-9.4-87.6-67.9 136.6-57.8 329.3 104.1 326.1 161.9-3.3 142.9-163.5 121.8-236.9-21.1-73.4-50-125.7-82.5-142.2 20.6 14.3 19 82.6 11.3 98.9-40.6-39-48-55-39.7-122.5l7.5-49.2zm-33.4 234.5 22.4 0c4.5 0 8.2 3.4 8.6 7.8l2.3 13.8c4.3 1.3 8.5 3.1 12.5 5.2l11.5-8.2c1.4-1.1 3.3-1.8 5.3-1.8 2.3 0 4.5 0.9 6.1 2.5l15.9 15.8c3.2 3.2 3.4 8.1 0.6 11.6l-8.1 11.4c2.1 4 3.8 8.2 5.2 12.5l14 2.3c4.3 0.4 7.6 4.1 7.6 8.6l0 22.4c0 4.5-3.4 8.2-7.8 8.6l-13.8 2.3c-1.3 4.3-3.1 8.5-5.2 12.5l8.2 11.5c2.7 3.3 2.5 8.3-0.7 11.5l-15.8 15.8c-3 3-8.3 3.3-11.6 0.6l-11.4-8.1c-14.9 8.4-11.7 0.5-14.9 19.2-0.4 4.2-4.1 7.6-8.6 7.6l-22.4 0c-4.5 0-8.2-3.4-8.6-7.8l-2.3-13.8c-4.3-1.3-8.5-3.1-12.5-5.2l-11.5 8.2c-1.4 1.1-3.3 1.8-5.3 1.8-2.3 0-4.5-0.9-6.1-2.5l-15.9-15.8c-3.2-3.2-3.4-8.2-0.6-11.6l8.1-11.3c-2.1-4-3.9-8.2-5.2-12.5l-14-2.3c-4.3-0.4-7.6-4.1-7.6-8.6l0-22.4c0-4.5 3.4-8.2 7.8-8.6l13.8-2.3c1.3-4.3 3.1-8.5 5.2-12.5l-8.2-11.5c-2.7-3.3-2.5-8.3 0.7-11.4l15.9-15.8c3.1-3 8.3-3.3 11.6-0.6l11.4 8.1c4-2.1 8.2-3.8 12.5-5.2l2.3-14c0.4-4.2 4.1-7.6 8.6-7.6zm13 48.4a45.5 45.4 0 0 0-45.5 45.4 45.5 45.4 0 0 0 45.5 45.4 45.5 45.4 0 0 0 45.5-45.4 45.5 45.4 0 0 0-45.5-45.4z"/></svg>